<?xml version="1.0" encoding="UTF-8"?>
<!DOCTYPE svg PUBLIC "-//W3C//DTD SVG 1.1//EN" "http://www.w3.org/Graphics/SVG/1.1/DTD/svg11.dtd">
<!-- Creator: CorelDRAW 2020 (64-Bit) -->
<svg xmlns="http://www.w3.org/2000/svg" xml:space="preserve" width="20px" height="28px" version="1.1" style="shape-rendering:geometricPrecision; text-rendering:geometricPrecision; image-rendering:optimizeQuality; fill-rule:evenodd; clip-rule:evenodd"
viewBox="0 0 20 28.29"
 xmlns:xlink="http://www.w3.org/1999/xlink"
 xmlns:xodm="http://www.corel.com/coreldraw/odm/2003">
 <defs>
  <style type="text/css">
   <![CDATA[
    .fil4 {fill:#4D616E}
    .fil0 {fill:#56B3B4}
    .fil5 {fill:#BF85BF}
    .fil2 {fill:#EA5E5E}
    .fil3 {fill:#EA5E5E}
    .fil1 {fill:#F7BA3E}
    .fil8 {fill:#199C9E;fill-rule:nonzero}
    .fil7 {fill:#BF85BF;fill-rule:nonzero}
    .fil6 {fill:#EA5E5E;fill-rule:nonzero}
   ]]>
  </style>
 </defs>
 <g id="Layer_x0020_1">
  <metadata id="CorelCorpID_0Corel-Layer"/>
  <polygon class="fil0" points="10.33,14.08 11.71,15.47 12.37,15.47 12.47,15.38 11.17,14.08 "/>
  <polygon class="fil0" points="6.07,14.47 11.14,14.47 10.62,15.08 6.07,15.08 "/>
  <polygon class="fil1" points="5.18,15.55 12.29,15.55 11.67,16.16 5.18,16.16 "/>
  <polygon class="fil2" points="6.07,16.64 10.62,16.64 11.14,17.24 6.07,17.24 "/>
  <polygon class="fil3" points="12.53,16.28 11.19,17.61 10.34,17.61 12.53,15.43 "/>
  <polygon class="fil4" points="6.99,13.39 12.07,13.39 11.55,13.99 6.99,13.99 "/>
  <polygon class="fil5" points="6.99,17.72 11.56,17.72 12.08,18.33 6.99,18.33 "/>
  <path class="fil6" d="M8.41 19.31l0 -0.09 0.09 0 0 0.09 -0.09 0zm0.09 0l0 -0.09 0.09 0 0 0.09 -0.09 0zm0.28 0l0 -0.09 0.1 0 0 0.09 -0.1 0zm0.1 0l0 -0.09 0.09 0 0 0.09 -0.09 0zm-0.47 -0.1l0 -0.09 0.09 0 0 0.09 -0.09 0zm0.09 0l0 -0.09 0.09 0 0 0.09 -0.09 0zm0.28 0l0 -0.09 0.1 0 0 0.09 -0.1 0zm0.1 0l0 -0.09 0.09 0 0 0.09 -0.09 0zm-0.47 -0.09l0 -0.09 0.09 0 0 0.09 -0.09 0zm0.09 0l0 -0.09 0.09 0 0 0.09 -0.09 0zm0.28 0l0 -0.09 0.1 0 0 0.09 -0.1 0zm0.1 0l0 -0.09 0.09 0 0 0.09 -0.09 0zm-0.47 -0.09l0 -0.09 0.09 0 0 0.09 -0.09 0zm0.09 0l0 -0.09 0.09 0 0 0.09 -0.09 0zm0.1 0l0 -0.09 0.09 0 0 0.09 -0.09 0zm0.09 0l0 -0.09 0.09 0 0 0.09 -0.09 0zm0.09 0l0 -0.09 0.1 0 0 0.09 -0.1 0zm0.1 0l0 -0.09 0.09 0 0 0.09 -0.09 0zm-0.47 -0.1l0 -0.09 0.09 0 0 0.09 -0.09 0zm0.09 0l0 -0.09 0.09 0 0 0.09 -0.09 0zm0.28 0l0 -0.09 0.1 0 0 0.09 -0.1 0zm0.1 0l0 -0.09 0.09 0 0 0.09 -0.09 0zm-0.47 -0.09l0 -0.09 0.09 0 0 0.09 -0.09 0zm0.09 0l0 -0.09 0.09 0 0 0.09 -0.09 0zm0.28 0l0 -0.09 0.1 0 0 0.09 -0.1 0zm0.1 0l0 -0.09 0.09 0 0 0.09 -0.09 0zm-0.47 -0.09l0 -0.09 0.09 0 0 0.09 -0.09 0zm0.09 0l0 -0.09 0.09 0 0 0.09 -0.09 0zm0.28 0l0 -0.09 0.1 0 0 0.09 -0.1 0zm0.1 0l0 -0.09 0.09 0 0 0.09 -0.09 0zm-0.38 -0.1l0 -0.09 0.09 0 0 0.09 -0.09 0zm0.1 0l0 -0.09 0.09 0 0 0.09 -0.09 0zm0.09 0l0 -0.09 0.09 0 0 0.09 -0.09 0zm0.09 0l0 -0.09 0.1 0 0 0.09 -0.1 0zm-0.18 -0.09l0 -0.09 0.09 0 0 0.09 -0.09 0zm0.09 0l0 -0.09 0.09 0 0 0.09 -0.09 0z"/>
  <path id="1" class="fil6" d="M9.53 19.31l0 -0.09 0.09 0 0 0.09 -0.09 0zm0.1 0l0 -0.09 0.09 0 0 0.09 -0.09 0zm0.09 0l0 -0.09 0.09 0 0 0.09 -0.09 0zm0.09 0l0 -0.09 0.09 0 0 0.09 -0.09 0zm0.19 0l0 -0.09 0.09 0 0 0.09 -0.09 0zm0.09 0l0 -0.09 0.1 0 0 0.09 -0.1 0zm-0.46 -0.1l0 -0.09 0.09 0 0 0.09 -0.09 0zm0.09 0l0 -0.09 0.09 0 0 0.09 -0.09 0zm0.28 0l0 -0.09 0.09 0 0 0.09 -0.09 0zm0.09 0l0 -0.09 0.1 0 0 0.09 -0.1 0zm-0.46 -0.09l0 -0.09 0.09 0 0 0.09 -0.09 0zm0.09 0l0 -0.09 0.09 0 0 0.09 -0.09 0zm0.28 0l0 -0.09 0.09 0 0 0.09 -0.09 0zm0.09 0l0 -0.09 0.1 0 0 0.09 -0.1 0zm-0.46 -0.09l0 -0.09 0.09 0 0 0.09 -0.09 0zm0.09 0l0 -0.09 0.09 0 0 0.09 -0.09 0zm0.19 0l0 -0.09 0.09 0 0 0.09 -0.09 0zm0.09 0l0 -0.09 0.09 0 0 0.09 -0.09 0zm-0.37 -0.1l0 -0.09 0.09 0 0 0.09 -0.09 0zm0.09 0l0 -0.09 0.09 0 0 0.09 -0.09 0zm0.09 0l0 -0.09 0.09 0 0 0.09 -0.09 0zm0.1 0l0 -0.09 0.09 0 0 0.09 -0.09 0zm0.09 0l0 -0.09 0.09 0 0 0.09 -0.09 0zm-0.37 -0.09l0 -0.09 0.09 0 0 0.09 -0.09 0zm0.09 0l0 -0.09 0.09 0 0 0.09 -0.09 0zm0.28 0l0 -0.09 0.09 0 0 0.09 -0.09 0zm0.09 0l0 -0.09 0.1 0 0 0.09 -0.1 0zm-0.46 -0.09l0 -0.09 0.09 0 0 0.09 -0.09 0zm0.09 0l0 -0.09 0.09 0 0 0.09 -0.09 0zm0.28 0l0 -0.09 0.09 0 0 0.09 -0.09 0zm0.09 0l0 -0.09 0.1 0 0 0.09 -0.1 0zm-0.46 -0.1l0 -0.09 0.09 0 0 0.09 -0.09 0zm0.09 0l0 -0.09 0.09 0 0 0.09 -0.09 0zm0.28 0l0 -0.09 0.09 0 0 0.09 -0.09 0zm0.09 0l0 -0.09 0.1 0 0 0.09 -0.1 0zm-0.56 -0.09l0 -0.09 0.09 0 0 0.09 -0.09 0zm0.1 0l0 -0.09 0.09 0 0 0.09 -0.09 0zm0.09 0l0 -0.09 0.09 0 0 0.09 -0.09 0zm0.09 0l0 -0.09 0.09 0 0 0.09 -0.09 0zm0.1 0l0 -0.09 0.09 0 0 0.09 -0.09 0zm0.09 0l0 -0.09 0.09 0 0 0.09 -0.09 0z"/>
  <path id="2" class="fil6" d="M10.66 19.31l0 -0.09 0.09 0 0 0.09 -0.09 0zm0.09 0l0 -0.09 0.09 0 0 0.09 -0.09 0zm0.09 0l0 -0.09 0.09 0 0 0.09 -0.09 0zm0.1 0l0 -0.09 0.09 0 0 0.09 -0.09 0zm-0.19 -0.1l0 -0.09 0.09 0 0 0.09 -0.09 0zm0.09 0l0 -0.09 0.09 0 0 0.09 -0.09 0zm-0.09 -0.09l0 -0.09 0.09 0 0 0.09 -0.09 0zm0.09 0l0 -0.09 0.09 0 0 0.09 -0.09 0zm-0.09 -0.09l0 -0.09 0.09 0 0 0.09 -0.09 0zm0.09 0l0 -0.09 0.09 0 0 0.09 -0.09 0zm0.28 0l0 -0.09 0.09 0 0 0.09 -0.09 0zm-0.37 -0.1l0 -0.09 0.09 0 0 0.09 -0.09 0zm0.09 0l0 -0.09 0.09 0 0 0.09 -0.09 0zm0.1 0l0 -0.09 0.09 0 0 0.09 -0.09 0zm0.09 0l0 -0.09 0.09 0 0 0.09 -0.09 0zm0.09 0l0 -0.09 0.09 0 0 0.09 -0.09 0zm-0.37 -0.09l0 -0.09 0.09 0 0 0.09 -0.09 0zm0.09 0l0 -0.09 0.09 0 0 0.09 -0.09 0zm0.28 0l0 -0.09 0.09 0 0 0.09 -0.09 0zm-0.37 -0.09l0 -0.09 0.09 0 0 0.09 -0.09 0zm0.09 0l0 -0.09 0.09 0 0 0.09 -0.09 0zm-0.09 -0.1l0 -0.09 0.09 0 0 0.09 -0.09 0zm0.09 0l0 -0.09 0.09 0 0 0.09 -0.09 0zm0.38 0l0 -0.09 0.09 0 0 0.09 -0.09 0zm-0.56 -0.09l0 -0.09 0.09 0 0 0.09 -0.09 0zm0.09 0l0 -0.09 0.09 0 0 0.09 -0.09 0zm0.09 0l0 -0.09 0.09 0 0 0.09 -0.09 0zm0.1 0l0 -0.09 0.09 0 0 0.09 -0.09 0zm0.09 0l0 -0.09 0.09 0 0 0.09 -0.09 0zm0.09 0l0 -0.09 0.09 0 0 0.09 -0.09 0zm0.1 0l0 -0.09 0.09 0 0 0.09 -0.09 0z"/>
  <path id="3" class="fil6" d="M11.78 19.31l0 -0.09 0.09 0 0 0.09 -0.09 0zm0.09 0l0 -0.09 0.09 0 0 0.09 -0.09 0zm0.1 0l0 -0.09 0.09 0 0 0.09 -0.09 0zm0.09 0l0 -0.09 0.09 0 0 0.09 -0.09 0zm-0.19 -0.1l0 -0.09 0.09 0 0 0.09 -0.09 0zm0.1 0l0 -0.09 0.09 0 0 0.09 -0.09 0zm-0.1 -0.09l0 -0.09 0.09 0 0 0.09 -0.09 0zm0.1 0l0 -0.09 0.09 0 0 0.09 -0.09 0zm-0.1 -0.09l0 -0.09 0.09 0 0 0.09 -0.09 0zm0.1 0l0 -0.09 0.09 0 0 0.09 -0.09 0zm-0.1 -0.1l0 -0.09 0.09 0 0 0.09 -0.09 0zm0.1 0l0 -0.09 0.09 0 0 0.09 -0.09 0zm-0.1 -0.09l0 -0.09 0.09 0 0 0.09 -0.09 0zm0.1 0l0 -0.09 0.09 0 0 0.09 -0.09 0zm-0.1 -0.09l0 -0.09 0.09 0 0 0.09 -0.09 0zm0.1 0l0 -0.09 0.09 0 0 0.09 -0.09 0zm-0.1 -0.1l0 -0.09 0.09 0 0 0.09 -0.09 0zm0.1 0l0 -0.09 0.09 0 0 0.09 -0.09 0zm-0.19 -0.09l0 -0.09 0.09 0 0 0.09 -0.09 0zm0.09 0l0 -0.09 0.09 0 0 0.09 -0.09 0zm0.1 0l0 -0.09 0.09 0 0 0.09 -0.09 0zm0.09 0l0 -0.09 0.09 0 0 0.09 -0.09 0z"/>
  <path id="4" class="fil6" d="M12.9 19.31l0 -0.09 0.09 0 0 0.09 -0.09 0zm0.1 0l0 -0.09 0.09 0 0 0.09 -0.09 0zm0.28 0l0 -0.09 0.09 0 0 0.09 -0.09 0zm0.09 0l0 -0.09 0.09 0 0 0.09 -0.09 0zm-0.47 -0.1l0 -0.09 0.09 0 0 0.09 -0.09 0zm0.1 0l0 -0.09 0.09 0 0 0.09 -0.09 0zm0.28 0l0 -0.09 0.09 0 0 0.09 -0.09 0zm0.09 0l0 -0.09 0.09 0 0 0.09 -0.09 0zm-0.47 -0.09l0 -0.09 0.09 0 0 0.09 -0.09 0zm0.1 0l0 -0.09 0.09 0 0 0.09 -0.09 0zm0.28 0l0 -0.09 0.09 0 0 0.09 -0.09 0zm0.09 0l0 -0.09 0.09 0 0 0.09 -0.09 0zm-0.37 -0.09l0 -0.09 0.09 0 0 0.09 -0.09 0zm0.09 0l0 -0.09 0.09 0 0 0.09 -0.09 0zm0.09 0l0 -0.09 0.09 0 0 0.09 -0.09 0zm0.1 0l0 -0.09 0.09 0 0 0.09 -0.09 0zm-0.19 -0.1l0 -0.09 0.09 0 0 0.09 -0.09 0zm0.09 0l0 -0.09 0.09 0 0 0.09 -0.09 0zm-0.18 -0.09l0 -0.09 0.09 0 0 0.09 -0.09 0zm0.09 0l0 -0.09 0.09 0 0 0.09 -0.09 0zm0.09 0l0 -0.09 0.09 0 0 0.09 -0.09 0zm0.1 0l0 -0.09 0.09 0 0 0.09 -0.09 0zm-0.38 -0.09l0 -0.09 0.09 0 0 0.09 -0.09 0zm0.1 0l0 -0.09 0.09 0 0 0.09 -0.09 0zm0.28 0l0 -0.09 0.09 0 0 0.09 -0.09 0zm0.09 0l0 -0.09 0.09 0 0 0.09 -0.09 0zm-0.47 -0.1l0 -0.09 0.09 0 0 0.09 -0.09 0zm0.1 0l0 -0.09 0.09 0 0 0.09 -0.09 0zm0.28 0l0 -0.09 0.09 0 0 0.09 -0.09 0zm0.09 0l0 -0.09 0.09 0 0 0.09 -0.09 0zm-0.47 -0.09l0 -0.09 0.09 0 0 0.09 -0.09 0zm0.1 0l0 -0.09 0.09 0 0 0.09 -0.09 0zm0.28 0l0 -0.09 0.09 0 0 0.09 -0.09 0zm0.09 0l0 -0.09 0.09 0 0 0.09 -0.09 0z"/>
  <path class="fil7" d="M7.25 19.88l0 -0.09 0.09 0 0 0.09 -0.09 0zm0.09 0l0 -0.09 0.09 0 0 0.09 -0.09 0zm0.1 0l0 -0.09 0.09 0 0 0.09 -0.09 0zm0.09 0l0 -0.09 0.09 0 0 0.09 -0.09 0zm0.09 0l0 -0.09 0.09 0 0 0.09 -0.09 0zm0.1 0l0 -0.09 0.09 0 0 0.09 -0.09 0zm0.09 0l0 -0.09 0.09 0 0 0.09 -0.09 0z"/>
  <path id="1" class="fil8" d="M8.56 20.26l0 -0.1 0.09 0 0 0.1 -0.09 0zm0.09 0l0 -0.1 0.09 0 0 0.1 -0.09 0zm0.1 0l0 -0.1 0.09 0 0 0.1 -0.09 0zm0.09 0l0 -0.1 0.09 0 0 0.1 -0.09 0zm-0.37 -0.1l0 -0.09 0.09 0 0 0.09 -0.09 0zm0.09 0l0 -0.09 0.09 0 0 0.09 -0.09 0zm0.28 0l0 -0.09 0.09 0 0 0.09 -0.09 0zm0.09 0l0 -0.09 0.09 0 0 0.09 -0.09 0zm-0.56 -0.09l0 -0.09 0.09 0 0 0.09 -0.09 0zm0.1 0l0 -0.09 0.09 0 0 0.09 -0.09 0zm0.37 0l0 -0.09 0.09 0 0 0.09 -0.09 0zm0.09 0l0 -0.09 0.09 0 0 0.09 -0.09 0zm-0.56 -0.1l0 -0.09 0.09 0 0 0.09 -0.09 0zm0.1 0l0 -0.09 0.09 0 0 0.09 -0.09 0zm-0.1 -0.09l0 -0.09 0.09 0 0 0.09 -0.09 0zm0.1 0l0 -0.09 0.09 0 0 0.09 -0.09 0zm-0.1 -0.09l0 -0.09 0.09 0 0 0.09 -0.09 0zm0.1 0l0 -0.09 0.09 0 0 0.09 -0.09 0zm-0.1 -0.1l0 -0.09 0.09 0 0 0.09 -0.09 0zm0.1 0l0 -0.09 0.09 0 0 0.09 -0.09 0zm0.37 0l0 -0.09 0.09 0 0 0.09 -0.09 0zm0.09 0l0 -0.09 0.09 0 0 0.09 -0.09 0zm-0.46 -0.09l0 -0.09 0.09 0 0 0.09 -0.09 0zm0.09 0l0 -0.09 0.09 0 0 0.09 -0.09 0zm0.28 0l0 -0.09 0.09 0 0 0.09 -0.09 0zm0.09 0l0 -0.09 0.09 0 0 0.09 -0.09 0zm-0.37 -0.09l0 -0.09 0.09 0 0 0.09 -0.09 0zm0.09 0l0 -0.09 0.09 0 0 0.09 -0.09 0zm0.1 0l0 -0.09 0.09 0 0 0.09 -0.09 0zm0.09 0l0 -0.09 0.09 0 0 0.09 -0.09 0z"/>
  <path id="2" class="fil8" d="M9.68 20.26l0 -0.1 0.09 0 0 0.1 -0.09 0zm0.1 0l0 -0.1 0.09 0 0 0.1 -0.09 0zm0.09 0l0 -0.1 0.09 0 0 0.1 -0.09 0zm-0.28 -0.1l0 -0.09 0.09 0 0 0.09 -0.09 0zm0.09 0l0 -0.09 0.09 0 0 0.09 -0.09 0zm0.19 0l0 -0.09 0.09 0 0 0.09 -0.09 0zm0.09 0l0 -0.09 0.09 0 0 0.09 -0.09 0zm-0.47 -0.09l0 -0.09 0.1 0 0 0.09 -0.1 0zm0.1 0l0 -0.09 0.09 0 0 0.09 -0.09 0zm0.37 0l0 -0.09 0.09 0 0 0.09 -0.09 0zm0.1 0l0 -0.09 0.09 0 0 0.09 -0.09 0zm-0.57 -0.1l0 -0.09 0.1 0 0 0.09 -0.1 0zm0.1 0l0 -0.09 0.09 0 0 0.09 -0.09 0zm0.37 0l0 -0.09 0.09 0 0 0.09 -0.09 0zm0.1 0l0 -0.09 0.09 0 0 0.09 -0.09 0zm-0.57 -0.09l0 -0.09 0.1 0 0 0.09 -0.1 0zm0.1 0l0 -0.09 0.09 0 0 0.09 -0.09 0zm0.37 0l0 -0.09 0.09 0 0 0.09 -0.09 0zm0.1 0l0 -0.09 0.09 0 0 0.09 -0.09 0zm-0.57 -0.09l0 -0.09 0.1 0 0 0.09 -0.1 0zm0.1 0l0 -0.09 0.09 0 0 0.09 -0.09 0zm0.37 0l0 -0.09 0.09 0 0 0.09 -0.09 0zm0.1 0l0 -0.09 0.09 0 0 0.09 -0.09 0zm-0.57 -0.1l0 -0.09 0.1 0 0 0.09 -0.1 0zm0.1 0l0 -0.09 0.09 0 0 0.09 -0.09 0zm0.37 0l0 -0.09 0.09 0 0 0.09 -0.09 0zm0.1 0l0 -0.09 0.09 0 0 0.09 -0.09 0zm-0.47 -0.09l0 -0.09 0.09 0 0 0.09 -0.09 0zm0.09 0l0 -0.09 0.09 0 0 0.09 -0.09 0zm0.19 0l0 -0.09 0.09 0 0 0.09 -0.09 0zm0.09 0l0 -0.09 0.09 0 0 0.09 -0.09 0zm-0.28 -0.09l0 -0.09 0.09 0 0 0.09 -0.09 0zm0.1 0l0 -0.09 0.09 0 0 0.09 -0.09 0zm0.09 0l0 -0.09 0.09 0 0 0.09 -0.09 0z"/>
  <path id="3" class="fil8" d="M10.62 20.26l0 -0.1 0.09 0 0 0.1 -0.09 0zm0.09 0l0 -0.1 0.09 0 0 0.1 -0.09 0zm0.09 0l0 -0.1 0.1 0 0 0.1 -0.1 0zm0.1 0l0 -0.1 0.09 0 0 0.1 -0.09 0zm0.09 0l0 -0.1 0.09 0 0 0.1 -0.09 0zm-0.28 -0.1l0 -0.09 0.09 0 0 0.09 -0.09 0zm0.09 0l0 -0.09 0.1 0 0 0.09 -0.1 0zm0.19 0l0 -0.09 0.09 0 0 0.09 -0.09 0zm0.1 0l0 -0.09 0.09 0 0 0.09 -0.09 0zm-0.38 -0.09l0 -0.09 0.09 0 0 0.09 -0.09 0zm0.09 0l0 -0.09 0.1 0 0 0.09 -0.1 0zm0.29 0l0 -0.09 0.09 0 0 0.09 -0.09 0zm0.09 0l0 -0.09 0.09 0 0 0.09 -0.09 0zm-0.47 -0.1l0 -0.09 0.09 0 0 0.09 -0.09 0zm0.09 0l0 -0.09 0.1 0 0 0.09 -0.1 0zm0.29 0l0 -0.09 0.09 0 0 0.09 -0.09 0zm0.09 0l0 -0.09 0.09 0 0 0.09 -0.09 0zm-0.47 -0.09l0 -0.09 0.09 0 0 0.09 -0.09 0zm0.09 0l0 -0.09 0.1 0 0 0.09 -0.1 0zm0.29 0l0 -0.09 0.09 0 0 0.09 -0.09 0zm0.09 0l0 -0.09 0.09 0 0 0.09 -0.09 0zm-0.47 -0.09l0 -0.09 0.09 0 0 0.09 -0.09 0zm0.09 0l0 -0.09 0.1 0 0 0.09 -0.1 0zm0.29 0l0 -0.09 0.09 0 0 0.09 -0.09 0zm0.09 0l0 -0.09 0.09 0 0 0.09 -0.09 0zm-0.47 -0.1l0 -0.09 0.09 0 0 0.09 -0.09 0zm0.09 0l0 -0.09 0.1 0 0 0.09 -0.1 0zm0.29 0l0 -0.09 0.09 0 0 0.09 -0.09 0zm0.09 0l0 -0.09 0.09 0 0 0.09 -0.09 0zm-0.47 -0.09l0 -0.09 0.09 0 0 0.09 -0.09 0zm0.09 0l0 -0.09 0.1 0 0 0.09 -0.1 0zm0.19 0l0 -0.09 0.09 0 0 0.09 -0.09 0zm0.1 0l0 -0.09 0.09 0 0 0.09 -0.09 0zm-0.47 -0.09l0 -0.09 0.09 0 0 0.09 -0.09 0zm0.09 0l0 -0.09 0.09 0 0 0.09 -0.09 0zm0.09 0l0 -0.09 0.1 0 0 0.09 -0.1 0zm0.1 0l0 -0.09 0.09 0 0 0.09 -0.09 0zm0.09 0l0 -0.09 0.09 0 0 0.09 -0.09 0z"/>
  <path id="4" class="fil8" d="M11.74 20.26l0 -0.1 0.09 0 0 0.1 -0.09 0zm0.09 0l0 -0.1 0.09 0 0 0.1 -0.09 0zm0.1 0l0 -0.1 0.09 0 0 0.1 -0.09 0zm0.09 0l0 -0.1 0.09 0 0 0.1 -0.09 0zm0.09 0l0 -0.1 0.1 0 0 0.1 -0.1 0zm0.1 0l0 -0.1 0.09 0 0 0.1 -0.09 0zm0.09 0l0 -0.1 0.09 0 0 0.1 -0.09 0zm-0.47 -0.1l0 -0.09 0.09 0 0 0.09 -0.09 0zm0.1 0l0 -0.09 0.09 0 0 0.09 -0.09 0zm0.37 0l0 -0.09 0.09 0 0 0.09 -0.09 0zm-0.47 -0.09l0 -0.09 0.09 0 0 0.09 -0.09 0zm0.1 0l0 -0.09 0.09 0 0 0.09 -0.09 0zm-0.1 -0.1l0 -0.09 0.09 0 0 0.09 -0.09 0zm0.1 0l0 -0.09 0.09 0 0 0.09 -0.09 0zm0.28 0l0 -0.09 0.09 0 0 0.09 -0.09 0zm-0.38 -0.09l0 -0.09 0.09 0 0 0.09 -0.09 0zm0.1 0l0 -0.09 0.09 0 0 0.09 -0.09 0zm0.09 0l0 -0.09 0.09 0 0 0.09 -0.09 0zm0.09 0l0 -0.09 0.1 0 0 0.09 -0.1 0zm0.1 0l0 -0.09 0.09 0 0 0.09 -0.09 0zm-0.38 -0.09l0 -0.09 0.09 0 0 0.09 -0.09 0zm0.1 0l0 -0.09 0.09 0 0 0.09 -0.09 0zm0.28 0l0 -0.09 0.09 0 0 0.09 -0.09 0zm-0.38 -0.1l0 -0.09 0.09 0 0 0.09 -0.09 0zm0.1 0l0 -0.09 0.09 0 0 0.09 -0.09 0zm-0.1 -0.09l0 -0.09 0.09 0 0 0.09 -0.09 0zm0.1 0l0 -0.09 0.09 0 0 0.09 -0.09 0zm0.37 0l0 -0.09 0.09 0 0 0.09 -0.09 0zm-0.56 -0.09l0 -0.09 0.09 0 0 0.09 -0.09 0zm0.09 0l0 -0.09 0.09 0 0 0.09 -0.09 0zm0.1 0l0 -0.09 0.09 0 0 0.09 -0.09 0zm0.09 0l0 -0.09 0.09 0 0 0.09 -0.09 0zm0.09 0l0 -0.09 0.1 0 0 0.09 -0.1 0zm0.1 0l0 -0.09 0.09 0 0 0.09 -0.09 0zm0.09 0l0 -0.09 0.09 0 0 0.09 -0.09 0z"/>
 </g>
</svg>
